<svg width="192" height="198" viewBox="0 0 192 198" fill="none" xmlns="http://www.w3.org/2000/svg">
<path d="M61.1818 145.672L94.9958 19.477C110.44 21.3377 119.589 27.5983 124.659 34.1807C130.653 41.9633 128.901 52.5456 126.411 62.0483C121.562 80.5504 113.612 110.38 111.108 118.65C107.66 130.035 88.1415 135.824 77.5479 136.46C96.6013 137.595 107.326 156.848 104.347 167.962C110.428 145.27 133.315 140.619 144.259 139.912C123.883 134.452 119.502 126.222 121.514 118.716L147.408 22.0757L191.908 24.5687L157.907 151.46C155.445 160.65 135.273 184.437 100.216 183.382C65.1586 182.327 58.1709 156.909 61.1818 145.672Z" fill="white"/>
<path d="M-0.00139582 177.213L41.7105 179.953L84.8949 18.7872C47.8845 19.9858 35.8558 43.3917 32.4917 55.9469L-0.00139582 177.213Z" fill="#9C4BFF"/>
</svg>
